/* XPM */
static char * D:\Workspace\gta5sync\Icon\render_5sync_ptsansregular_v2_92_110_dejavu\128x128_xpm[] = {
"128 128 3 1",
" 	c None",
".	c #000000",
"+	c #037A00",
"                                                                                                                                ",
"                                                                                                                                ",
"                                                                                                                                ",
"                                                                                                                                ",
"                                                                                                                                ",
"                                                                                                                                ",
"                                                                                                                                ",
"                                                                                                                                ",
"                                                                                                                                ",
"                                                                                                                                ",
"                                                      .......................................................                   ",
"                                                      .......................................................                   ",
"                                                     .......................................................                    ",
"                                                     .......................................................                    ",
"                                                     .......................................................                    ",
"                                                     .......................................................                    ",
"                                                     .......................................................                    ",
"                                                    .......................................................                     ",
"                                                    .......................................................                     ",
"                                                    .......................................................                     ",
"                                                    .......................................................                     ",
"                                                    .............                                                               ",
"                                                   ..............                                                               ",
"                                                   .............                                                                ",
"                                                   .............                                                                ",
"                                                   .............                                                                ",
"                                                  ..............                                                                ",
"                                                  ..............                                                                ",
"                                                  .............                                                                 ",
"                                                  .............                                                                 ",
"                                                  .............                                                                 ",
"                                                 ..............                                                                 ",
"                                                 .............                                                                  ",
"                                                 .............                                                                  ",
"                                                 .............                                                                  ",
"                                                 .............                                                                  ",
"                                                ..............                                                                  ",
"                                                .............                                                                   ",
"                                                .............                                                                   ",
"                                                .............                                                                   ",
"                                                .............                                                                   ",
"                                               ..............                                                                   ",
"                                               .............                                                                    ",
"                                               .............                                                                    ",
"                                               .............                                                                    ",
"                                              ..............                                                                    ",
"                                              ..............                                                                    ",
"                                              .............                                                                     ",
"                                              .............                                                                     ",
"                                              .............                                                                     ",
"                                             .............................                                                      ",
"                                             ..................................                                                 ",
"                                             ......................................                                             ",
"                                             ........................................                                           ",
"                                             ..........................................                                         ",
"                                            .............................................                                       ",
"                                            ..............................................                                      ",
"                                            ...............................................                                     ",
"                                            .................................................                                   ",
"                                            .................................................                                   ",
"                                           ......                 ............................                                  ",
"                                                                       ........................                                 ",
"                                                                          ......................                                ",
"                                                                            ....................                                ",
"                                                                             ....................                               ",
"                                                                               ..................                               ",
"                                                                                .................                               ",
"                                                                                 ................                               ",
"                                                                                 .................                              ",
"                                                                                  ................                              ",
"                                                                                   ...............                              ",
"                                                                                   ...............                              ",
"                                                                                   ...............                              ",
"                                                                                   ...............                              ",
"                                                                                    ..............                              ",
"                                                                                    ..............                              ",
"                                                                                    ..............                              ",
"                                                                                    ..............                              ",
"                                                                                    ..............                              ",
"                                                                                   ...............                              ",
"                                                                                   ..............                               ",
"                                                                                   ..............                               ",
"                                                                                   ..............                               ",
"                                                                                   .............                                ",
"                                                                                                                                ",
"                                                                                                                                ",
"                                                                                                                                ",
"                                                                                                                                ",
"                 ++++++++++++          +++++              +++++        +++++   ++++++++                    ++++++++++           ",
"               ++++++++++++++++        +++++             +++++++      ++++++ +++++++++++                 +++++++++++++++        ",
"              +++++++++++++++++        ++++++            ++++++       +++++++++++++++++++              ++++++++++++++++++       ",
"             ++++++++++++++++++        ++++++           +++++++       ++++++++++++++++++++            ++++++++++++++++++        ",
"            +++++++++++++++++++        ++++++          +++++++        ++++++++++++++++++++           +++++++++++++++++++        ",
"            +++++++        +++         ++++++          ++++++         +++++++++    +++++++          +++++++++       ++++        ",
"           ++++++            +          +++++         +++++++         +++++++       ++++++          +++++++          +++        ",
"           ++++++                       ++++++        ++++++         +++++++        ++++++         +++++++                      ",
"           ++++++                       ++++++       +++++++         +++++++        ++++++         ++++++                       ",
"           ++++++                       ++++++       ++++++          ++++++         ++++++        +++++++                       ",
"           ++++++++                     ++++++      +++++++          ++++++         ++++++        ++++++                        ",
"            +++++++++++                  +++++      ++++++           +++++          ++++++       +++++++                        ",
"            ++++++++++++++               ++++++    ++++++           ++++++          ++++++       ++++++                         ",
"             ++++++++++++++              ++++++   +++++++           ++++++         ++++++        ++++++                         ",
"              ++++++++++++++             ++++++   ++++++            ++++++         ++++++        ++++++                         ",
"                 ++++++++++++            ++++++  +++++++            ++++++         ++++++        ++++++                         ",
"                    +++++++++            ++++++  ++++++             +++++          ++++++        ++++++                         ",
"                      +++++++             +++++++++++++            ++++++          ++++++        ++++++                         ",
"                       ++++++             ++++++++++++             ++++++         ++++++         ++++++                         ",
"                       ++++++             +++++++++++              ++++++         ++++++         ++++++                         ",
"                       ++++++             +++++++++++              ++++++         ++++++         ++++++            +            ",
"        +++           +++++++             ++++++++++               +++++          ++++++         +++++++          +++           ",
"        ++++++      ++++++++               +++++++++              ++++++          ++++++          ++++++++     ++++++           ",
"        ++++++++++++++++++++               ++++++++               ++++++         ++++++           ++++++++++++++++++            ",
"        +++++++++++++++++++                ++++++++               ++++++         ++++++            +++++++++++++++++            ",
"        ++++++++++++++++++                 +++++++                ++++++         ++++++             ++++++++++++++++            ",
"        ++++++++++++++++                   ++++++                 +++++          ++++++              ++++++++++++++             ",
"            +++++++++                      ++++++                                                      +++++++++                ",
"                                          ++++++                                                                                ",
"                                         +++++++                                                                                ",
"                                         ++++++                                                                                 ",
"                                       +++++++                                                                                  ",
"                                  ++++++++++++                                                                                  ",
"                                  +++++++++++                                                                                   ",
"                                  ++++++++++                                                                                    ",
"                                  +++++++++                                                                                     ",
"                                  +++++++                                                                                       ",
"                                                                                                                                ",
"                                                                                                                                ",
"                                                                                                                                "};
