/* XPM */
static char * C:\Users\Rafael\Documents\Projects\gta5view\res\gta5view_xpm[] = {
"128 128 4 1",
" 	c None",
".	c #000000",
"+	c #FE0000",
"@	c #FF0000",
"                                                                                                                                ",
"                                                                                                                                ",
"                                                                                                                                ",
"                                                                                                                                ",
"                                                                                                                                ",
"                                                                                                                                ",
"                                                                                                                                ",
"                                                                                                                                ",
"                                                                                                                                ",
"                                                       ......................................................                   ",
"                                                      .......................................................                   ",
"                                                      .......................................................                   ",
"                                                      .......................................................                   ",
"                                                      .......................................................                   ",
"                                                     .......................................................                    ",
"                                                     .......................................................                    ",
"                                                     .......................................................                    ",
"                                                     .......................................................                    ",
"                                                     .......................................................                    ",
"                                                    .......................................................                     ",
"                                                    .......................................................                     ",
"                                                    .............                                                               ",
"                                                    .............                                                               ",
"                                                    .............                                                               ",
"                                                   ..............                                                               ",
"                                                   .............                                                                ",
"                                                   .............                                                                ",
"                                                   .............                                                                ",
"                                                  ..............                                                                ",
"                                                  ..............                                                                ",
"                                                  .............                                                                 ",
"                                                  .............                                                                 ",
"                                                  .............                                                                 ",
"                                                 ..............                                                                 ",
"                                                 .............                                                                  ",
"                                                 .............                                                                  ",
"                                                 .............                                                                  ",
"                                                 .............                                                                  ",
"                                                ..............                                                                  ",
"                                                .............                                                                   ",
"                                                .............                                                                   ",
"                                                .............                                                                   ",
"                                                .............                                                                   ",
"                                               ..............                                                                   ",
"                                               .............                                                                    ",
"                                               .............                                                                    ",
"                                               .............                                                                    ",
"                                              ..............                                                                    ",
"                                              ..............                                                                    ",
"                                              .............       ..                                                            ",
"                                              ................................                                                  ",
"                                              ....................................                                              ",
"                                             ........................................                                           ",
"                                             ..........................................                                         ",
"                                             ............................................                                       ",
"                                             .............................................                                      ",
"                                             ..............................................                                     ",
"                                            .................................................                                   ",
"                                            .................................................                                   ",
"                                            ..................................................                                  ",
"                                            .....                 .............................                                 ",
"                                                                       .........................                                ",
"                                                                          ......................                                ",
"                                                                            .....................                               ",
"                                                                              ...................                               ",
"                                                                               ...................                              ",
"                                                                                ..................                              ",
"                                                                                 .................                              ",
"                                                                                  ................                              ",
"                                                                                   ...............                              ",
"                                                                                   ................                             ",
"                                                                                   ................                             ",
"                                                                                    ...............                             ",
"                                                                                    ...............                             ",
"                                                                                    ...............                             ",
"                                                                                    ...............                             ",
"                                                                                    ..............                              ",
"                                                ++                                  ..............                              ",
"                                              +@@@+                                 ..............                              ",
"                                              @@@@@                                 ..............                              ",
"                                             +@@@@@                                 ..............                              ",
"                                              @@@@+                                ...............                              ",
"                                              @@@+                                 ..............                               ",
"                                                                                   ..............                               ",
"                                                                                                                                ",
"                                                                                                                                ",
"                                                                                                                                ",
"                                                                                                                                ",
"             @@@@                 @@@@       @@@                 +++@@++          ++++             ++++             @@@@@       ",
"             @@@@+               +@@@@      @@@@+             ++@@@@@@@@@+        @@@@+           +@@@@+           +@@@@+       ",
"             @@@@+               @@@@+      @@@@+            +@@@@@@@@@@@@@       @@@@+           @@@@@@           @@@@@        ",
"             +@@@+              +@@@@      +@@@@            +@@@@@@@@@@@@@@+      @@@@+          +@@@@@@           @@@@+        ",
"             +@@@@             +@@@@+      +@@@@           @@@@@++    +@@@@@      @@@@+          @@@@@@@          +@@@@         ",
"             +@@@@             +@@@+       +@@@+          +@@@@+       +@@@@+     @@@@+         +@@@+@@@          @@@@+         ",
"             +@@@@            +@@@@+       @@@@+         +@@@@+         @@@@+     @@@@+         @@@++@@@         +@@@@          ",
"             +@@@@            +@@@+        @@@@+        +@@@@+          +@@@+     @@@@+        @@@@ +@@@         @@@@+          ",
"              @@@@           +@@@@+       +@@@@         +@@@@           @@@@+     @@@@@        @@@+ +@@@        +@@@@           ",
"              @@@@+          @@@@+        +@@@@        +@@@@+          +@@@@+     +@@@+       +@@@  +@@@        +@@@+           ",
"              @@@@+         +@@@@         +@@@+        +@@@@           @@@@+      @@@@+       @@@+  +@@@       +@@@@+           ",
"              @@@@+         @@@@+         @@@@+        @@@@+         ++@@@@+      +@@@+      +@@@+  +@@@+      @@@@@            ",
"              +@@@+        +@@@@          @@@@        +@@@@        ++@@@@@+       +@@@+      +@@@   +@@@+      @@@@+            ",
"              +@@@+        @@@@+         +@@@@        +@@@@+++++++@@@@@@@+        +@@@+     +@@@+   +@@@+     +@@@@             ",
"              +@@@@       +@@@@          +@@@+        @@@@@@@@@@@@@@@@@++         +@@@+     +@@@    +@@@+     @@@@+             ",
"              +@@@@       @@@@+          @@@@+        @@@@@@@@@@@@@@@++           +@@@+     @@@+     @@@+    +@@@@              ",
"               @@@@      +@@@+           @@@@+       +@@@@@@@@@@@+++              +@@@+    +@@@      @@@+    @@@@+              ",
"               @@@@     +@@@@@          +@@@@        +@@@@++                      +@@@+    @@@+      @@@+   +@@@@               ",
"               @@@@     +@@@+           +@@@@        +@@@@                        +@@@@   +@@@       @@@+   +@@@+               ",
"               @@@@+   +@@@@+           +@@@+        +@@@@                        +@@@@   @@@+       @@@+   @@@@                ",
"               +@@@+   +@@@+            @@@@+        +@@@@                        @@@@+  +@@@        @@@+  @@@@+                ",
"               +@@@+   @@@@@            @@@@+        +@@@@                         @@@+  @@@+        @@@+  @@@@                 ",
"               +@@@+  +@@@+            +@@@@          @@@@+                        @@@+ +@@@+        @@@+ +@@@+                 ",
"               +@@@+  @@@@             +@@@@          @@@@+                        @@@+ +@@+         @@@+ +@@@+                 ",
"               +@@@+ +@@@+             +@@@+          +@@@@+                       @@@+ @@@+         @@@+ @@@+                  ",
"                @@@+ @@@@              @@@@+          +@@@@@           ++          @@@++@@+          +@@++@@@+                  ",
"                @@@++@@@+              @@@@+           +@@@@@+      ++@@@          @@@+@@@+          +@@++@@@                   ",
"                @@@@@@@@              +@@@@             @@@@@@@@@@@@@@@@@          @@@@@@@           +@@@@@@+                   ",
"                @@@@@@@+              +@@@@              +@@@@@@@@@@@@@@@          @@@@@@+           +@@@@@@                    ",
"                +@@@@@+               +@@@+               +@@@@@@@@@@@++           @@@@@@            +@@@@@+                    ",
"                 @@@@@                @@@@                  ++++@++++              @@@@@              @@@@@                     ",
"                                                                                                                                ",
"                                                                                                                                ",
"                                                                                                                                ",
"                                                                                                                                ",
"                                                                                                                                ",
"                                                                                                                                ",
"                                                                                                                                ",
"                                                                                                                                ",
"                                                                                                                                "};
